<svg xmlns:xlink="http://www.w3.org/1999/xlink" xmlns="http://www.w3.org/2000/svg" class="logo_wrangler" width="192"  height="64" ><defs><symbol id="wranglercl" viewBox="0 0 174.271 50.487"><path id="wrangler" d="M7.784,0l6.622,16.033h.465L22.191.465h.465L30.439,15.8H30.9L37.526,0h7.319V.232L31.485,35.087h-.349l-8.249-18.24h-.465l-8.016,18.24h-.465L0,0ZM125.359,0h7.2V33.576h-7.2ZM54.721,6.622h2.672V12.78c-1.51,0-7.319,1.394-7.319,4.647v15.8H43.219V6.971h6.855v1.51c2.44-.581,2.788-1.859,4.647-1.859ZM160.1,6.971h6.855V8.946c.581-.232,1.394-1.743,4.88-1.975h2.44v6.506c-3.369-.232-7.552,1.278-7.552,4.415v15.8H160.1Zm-13.012-.465c5.925,0,9.759,4.066,11.967,7.668l-16.962,11.85c1.51,1.278,2.9,2.324,4.763,2.44,2.672,0,4.88-.813,8.133-3.95.116,0,2.672,5.228,2.672,5.228,0,.232-5,4.531-10.689,4.531-10.572,0-13.477-10.572-13.477-13.012V18.124c0-3.485,3.834-11.618,13.593-11.618Zm-7.319,12.548.116,1.975,9.992-6.855a4.939,4.939,0,0,0-3.834-1.51c-5.228,0-6.274,5.693-6.274,6.39ZM60.066,6.971h15.1V33.46H69.128V31.834c-1.046.349-2.788,1.743-5.809,1.627-5.344-.116-8.714-4.3-8.83-9.178-.116-4.183,3.021-9.178,8.6-9.178,4.415,0,5.112.929,5.925,1.278V12.664H58.555C59.252,9.875,59.485,9.178,60.066,6.971Zm.7,17.543c0,1.162,1.743,3.021,3.6,3.021A3.632,3.632,0,0,0,68.2,24.863a3.385,3.385,0,0,0-3.718-3.6C61,21.145,60.763,23.352,60.763,24.514ZM110.721,6.39h13.826v.7a38.666,38.666,0,0,0-1.51,5.693h-2.207a37.337,37.337,0,0,1,.929,4.183V19.17c0,3.021-2.324,5.809-2.556,6.041a18.16,18.16,0,0,1,5.112,9.992,17.178,17.178,0,0,1-.232,4.183c-1.859,6.739-6.274,9.643-10.224,10.689a19.47,19.47,0,0,1-5.693.349c-.465-.116-3.834-.232-8.6-5l4.88-5a7.205,7.205,0,1,0,5.344-11.27c-3.485,0-4.88,3.021-5.344,3.485l-5.461-4.3-.232-.116v5.112H91.667V17.311a3.528,3.528,0,0,0-3.6-3.485c-3.137,0-4.647,2.324-4.647,5V33.46H76.563V6.971h6.855V8.714c1.859-.929,3.021-1.859,6.622-1.859,4.763,0,8.83,4.066,8.714,8.016V28.116c.232-.116,2.44-2.324,3.021-2.9,0,0-2.44-3.253-2.44-5.809v-2.44c-.116-3.369,3.718-10.572,11.386-10.572Zm-4.415,11.386a4.328,4.328,0,0,0,4.415,4.647,4.737,4.737,0,0,0,4.415-4.415c0-1.394-1.394-4.415-4.415-4.415A4.294,4.294,0,0,0,106.306,17.776ZM135.351.929a1.613,1.613,0,0,0-.581,1.162,1.43,1.43,0,0,0,.581,1.162,1.99,1.99,0,0,0,2.556,0,1.613,1.613,0,0,0,.581-1.162,1.43,1.43,0,0,0-.581-1.162,1.99,1.99,0,0,0-2.556,0ZM138.139,3.6a2.447,2.447,0,0,1-1.51.581,2.209,2.209,0,0,1-1.51-.581,1.924,1.924,0,0,1-.581-1.394,1.924,1.924,0,0,1,.581-1.394,2.447,2.447,0,0,1,1.51-.581,2.209,2.209,0,0,1,1.51.581,1.564,1.564,0,0,1,.581,1.394A1.5,1.5,0,0,1,138.139,3.6Zm-1.046-2.207c-.116,0-.232-.116-.465-.116h-.349v.813h.7c.116,0,.232-.232.232-.349s-.116-.232-.116-.349Zm-.465-.349a1.258,1.258,0,0,1,.7.116.537.537,0,0,1,.349.581.6.6,0,0,1-.232.465c-.116,0-.232.116-.349.116a.6.6,0,0,1,.465.232.427.427,0,0,1,.116.349v.349h-.349V3.021c0-.232-.116-.465-.232-.465s-.232-.116-.465-.116h-.349v.813h-.465V1.046h.813Z"></path></symbol></defs><use xlink:href="#wranglercl"></use></svg>