<svg xmlns:xlink="http://www.w3.org/1999/xlink" xmlns="http://www.w3.org/2000/svg" role="img" aria-labelledby="img-alt" aria-label="Remove from Favorites" class="icon icon-plp-wishlist icon-plp-wishlist-dims " width="24"  height="20" ><defs><symbol viewBox="0 0 18 15" id="plp-wishlist" xmlns="http://www.w3.org/2000/svg"><g fill-rule="nonzero" fill="none"><path fill="#FFF" d="M1.884 1.082C3.916-.548 7.056-.301 9 1.584c1.944-1.885 5.084-2.129 7.116-.502 2.584 2.072 2.27 5.413.504 7.274l-.132.133-6.166 5.982A1.88 1.88 0 019 15c-.444 0-.865-.15-1.2-.424l-.122-.108-6.166-5.982c-1.885-1.83-2.271-5.285.372-7.404z"></path><path fill="#000" d="M9 1.584c1.944-1.885 5.084-2.129 7.116-.502 2.584 2.072 2.27 5.413.504 7.274l-.132.133-6.166 5.982A1.88 1.88 0 019 15c-.444 0-.865-.15-1.2-.424l-.122-.108-6.166-5.982c-1.885-1.83-2.271-5.285.372-7.404C3.916-.548 7.056-.301 9 1.584zm-6.016.547l-.161.12c-1.664 1.334-1.716 3.592-.407 5.014l.14.144 6.167 5.983A.39.39 0 009 13.5a.39.39 0 00.22-.06l.057-.046 6.165-5.98c1.453-1.413 1.457-3.781-.264-5.161-1.367-1.095-3.544-.98-4.973.26l-.161.148L9 3.673 7.956 2.661c-1.37-1.328-3.546-1.533-4.972-.53zm4.463 1.645a.5.5 0 11-.894.448C5.828 2.774 3.5 3.439 3.5 5a.5.5 0 01-1 0c0-2.582 3.734-3.65 4.947-1.224z"></path></g></symbol></defs>
<title id="img-alt">Remove from Favorites</title>
<use xlink:href="#plp-wishlist"></use>
</svg>